<?xml version="1.0" encoding="UTF-8"?>
<svg version="1.1" viewBox="0 0 2000 2000" xmlns="http://www.w3.org/2000/svg">
 <g transform="translate(0 947.64)">
  <g transform="matrix(3.8524 0 0 3.8524 7.8153 -3014.8)" fill-rule="evenodd">
   <circle transform="rotate(-90)" cx="-796.79" cy="254.58" r="230.53" fill="#fff" stroke="#045" stroke-linecap="round" stroke-width="10"/>
   <rect x="155.52" y="642.22" width="204.96" height="307.77" ry="0" fill="#045" stroke="#045" stroke-linecap="round" stroke-width="10"/>
   <rect x="165.01" y="651.96" width="185.98" height="288.29" ry="0" fill="#5df" stroke="#0a8" stroke-linecap="round" stroke-width="10"/>
   <rect transform="scale(-1,1)" x="-323.09" y="733.87" width="127.53" height="1.5583" ry=".2239" fill="#045" stroke="#045" stroke-linecap="round" stroke-width="10"/>
   <rect transform="scale(-1,1)" x="-322.65" y="716.91" width="127.53" height="1.5583" ry=".2239" fill="#045" stroke="#045" stroke-linecap="round" stroke-width="10"/>
   <rect transform="scale(-1,1)" x="-322.21" y="750.82" width="127.53" height="1.5583" ry=".2239" fill="#045" stroke="#045" stroke-linecap="round" stroke-width="10"/>
   <rect transform="scale(-1,1)" x="-321.77" y="767.77" width="127.53" height="1.5583" ry=".2239" fill="#045" stroke="#045" stroke-linecap="round" stroke-width="10"/>
   <rect transform="scale(-1,1)" x="-321.32" y="784.73" width="127.53" height="1.5583" ry=".2239" fill="#045" stroke="#045" stroke-linecap="round" stroke-width="10"/>
   <rect transform="scale(-1,1)" x="-320.88" y="801.68" width="127.53" height="1.5583" ry=".2239" fill="#045" stroke="#045" stroke-linecap="round" stroke-width="10"/>
   <rect transform="scale(-1,1)" x="-320.44" y="818.63" width="127.53" height="1.5583" ry=".2239" fill="#045" stroke="#045" stroke-linecap="round" stroke-width="10"/>
   <g transform="matrix(4.7152 0 0 3.8958 1311.9 -2729.1)" fill="#0cf" stroke-width="2.1732">
    <path d="m-211.9 871.2h2.2878v8.848h-2.2878z"/>
    <path d="m-209.62 871.2h2.2878l-2.2163 4.2694 2.2163 4.5786h-2.2878l-2.6286-4.802z"/>
   </g>
   <g transform="matrix(-4.7152 0 0 3.8958 -796.9 -2729.1)" fill="#0cf" stroke-width="2.1732">
    <path d="m-211.9 871.2h2.2878v8.848h-2.2878z"/>
    <path d="m-209.62 871.2h2.2878l-2.2163 4.2694 2.2163 4.5786h-2.2878l-2.6286-4.802z"/>
   </g>
   <rect x="201.28" y="665.04" width="113.44" height="29.016" fill="#006680" stroke="#0cf" stroke-linecap="round" stroke-width="10"/>
   <rect transform="scale(-1,1)" x="-293.3" y="675.98" width="70.597" height="7.7916" ry="1.1195" fill="#0a8"/>
   <rect transform="rotate(90)" x="861.39" y="-320.78" width="56.468" height="32.065" fill="#045"/>
   <path d="m320.78 917.68v8.913l-15.472-8.6343-16.593 8.6343v-8.913l17.402-10.241z" fill="#045"/>
   <path d="m305.33 833.02c1.7578 0 3.7289 1.707 3.7289 3.8274v54.678c0 2.1204-1.9711 3.8275-3.7289 3.8275s-3.729-1.7071-3.729-3.8275v-54.678c0-2.1204 1.9711-3.8274 3.729-3.8274z" fill="#045"/>
   <path d="m274.97 864.19c0-1.8043 1.6631-3.8274 3.729-3.8274h53.271c2.0658 0 3.7289 2.0231 3.7289 3.8274s-1.6631 3.8275-3.7289 3.8275h-53.271c-2.0658 0-3.729-2.0232-3.729-3.8275z" fill="#045"/>
   <path d="m297.47 834.09c1.698-0.46695 4.0324 0.65824 4.567 2.7064l13.787 52.815c0.53468 2.0481-0.93883 4.2206-2.6368 4.6877-1.698 0.46699-4.0324-0.6582-4.567-2.7064l-13.787-52.815c-0.53468-2.0481 0.93878-4.2207 2.6368-4.6877z" fill="#045"/>
   <path d="m279.04 848.61c0.87892-1.5625 3.3048-2.4611 5.0938-1.4009l46.134 27.339c1.7891 1.0602 2.2438 3.6658 1.3649 5.2284-0.87893 1.5626-3.3048 2.4611-5.0938 1.401l-46.134-27.339c-1.789-1.0602-2.2438-3.6659-1.3649-5.2284z" fill="#045"/>
   <path d="m279.04 879.77c-0.87893-1.5626-0.42423-4.1682 1.3649-5.2284l46.134-27.339c1.7891-1.0602 4.2149-0.16128 5.0938 1.401 0.87892 1.5626 0.42419 4.1682-1.3649 5.2284l-46.134 27.339c-1.789 1.0602-4.2149 0.16128-5.0938-1.4009z" fill="#045"/>
   <path d="m290.15 891.18c-1.5224-0.90215-2.3978-3.3921-1.3649-5.2284l26.635-47.352c1.0329-1.8363 3.5715-2.3031 5.0938-1.401 1.5223 0.90215 2.3978 3.3921 1.3649 5.2284l-26.635 47.352c-1.0329 1.8363-3.5715 2.3031-5.0938 1.401z" fill="#045"/>
   <path d="m290.15 837.2c1.5224-0.90214 4.0609-0.43543 5.0939 1.4009l26.635 47.352c1.0329 1.8363 0.15745 4.3262-1.3649 5.2284s-4.0609 0.43543-5.0938-1.401l-26.635-47.352c-1.0329-1.8363-0.15748-4.3262 1.3649-5.2284z" fill="#045"/>
   <path d="m283.86 842.15c1.243-1.2758 3.8128-1.4994 5.2736-3e-5l37.668 38.663c1.4608 1.4994 1.243 4.137-2e-5 5.4129-1.243 1.2758-3.8127 1.4994-5.2735-4e-5l-37.668-38.663c-1.4608-1.4994-1.243-4.137 1e-5 -5.4128z" fill="#045"/>
   <path d="m276 856.12c0.45496-1.7428 2.5715-3.2553 4.567-2.7065l51.456 14.152c1.9954 0.5488 3.0917 2.9449 2.6368 4.6877-0.45497 1.7428-2.5715 3.2552-4.567 2.7064l-51.456-14.152c-1.9954-0.54884-3.0917-2.9448-2.6368-4.6877z" fill="#045"/>
   <path d="m276 872.26c-0.45495-1.7428 0.64128-4.1389 2.6368-4.6877l51.456-14.152c1.9955-0.54877 4.1121 0.9637 4.567 2.7065 0.45496 1.7428-0.64129 4.1388-2.6368 4.6877l-51.456 14.152c-1.9954 0.54877-4.112-0.96355-4.567-2.7064z" fill="#045"/>
   <path d="m283.86 886.23c-1.243-1.2758-1.4608-3.9135-5e-5 -5.4129l37.668-38.663c1.4608-1.4994 4.0306-1.2758 5.2736 3e-5 1.243 1.2758 1.4608 3.9134-4e-5 5.4129l-37.668 38.663c-1.4608 1.4993-4.0305 1.2758-5.2735 0z" fill="#045"/>
   <path d="m297.47 894.3c-1.698-0.46703-3.1715-2.6394-2.6368-4.6877l13.787-52.815c0.53469-2.0482 2.8691-3.1734 4.5671-2.7064 1.6979 0.46699 3.1714 2.6395 2.6367 4.6877l-13.788 52.815c-0.53468 2.0481-2.869 3.1734-4.567 2.7064z" fill="#045"/>
   <ellipse cx="305.33" cy="863.1" rx="25.711" ry="25.615" fill="#0cf" opacity=".622"/>
   <rect transform="scale(-1,1)" x="-249.77" y="873.38" width="63.006" height="1.5583" ry=".2239" fill="#045" stroke="#045" stroke-linecap="round" stroke-width="10"/>
  </g>
 </g>
</svg>
