<?xml version='1.0' encoding='utf-8'?>
<svg xmlns="http://www.w3.org/2000/svg" version="1.1" viewBox="0.0 0.0 1856.5301837270342 1319.2073490813648" fill="none" stroke="none" stroke-linecap="square" stroke-miterlimit="10"><clipPath id="p.0"><path d="m0 0l1856.5302 0l0 1319.2074l-1856.5302 0l0 -1319.2074z" clip-rule="nonzero"/></clipPath><g clip-path="url(#p.0)"><path fill="#000000" fill-opacity="0.0" d="m0 0l1856.5302 0l0 1319.2074l-1856.5302 0z" fill-rule="evenodd"/><path fill="#f3f3f3" d="m424.8609 107.98946l0 0c0 -27.599724 22.373993 -49.973717 49.973694 -49.973717l655.17065 0c13.253906 0 25.964844 5.2650757 35.336792 14.636963c9.371948 9.371887 14.636963 22.082901 14.636963 35.336754l0 1002.35175c0 27.599731 -22.374023 49.973755 -49.973755 49.973755l-655.17065 0l0 0c-27.5997 0 -49.973694 -22.374023 -49.973694 -49.973755z" fill-rule="evenodd"/><path stroke="#666666" stroke-width="8.0" stroke-linejoin="round" stroke-linecap="butt" d="m424.8609 107.98946l0 0c0 -27.599724 22.373993 -49.973717 49.973694 -49.973717l655.17065 0c13.253906 0 25.964844 5.2650757 35.336792 14.636963c9.371948 9.371887 14.636963 22.082901 14.636963 35.336754l0 1002.35175c0 27.599731 -22.374023 49.973755 -49.973755 49.973755l-655.17065 0l0 0c-27.5997 0 -49.973694 -22.374023 -49.973694 -49.973755z" fill-rule="evenodd"/><path fill="#000000" fill-opacity="0.0" d="m480.13123 88.39895l368.15747 0l0 240.97638l-368.15747 0z" fill-rule="evenodd"/><path fill="#666666" d="m593.85 276.59894l-44.984375 -60.48436l-44.796875 60.48436l-11.203125 0l50.203125 -67.39061l-46.65625 -63.265625l11.203125 0l41.625 56.1875l41.625 -56.1875l10.625 0l-46.65625 63.09375l50.203125 67.562485l-11.1875 0zm37.880188 -130.65623l9.53125 0l0 122.062485l75.21875 0l0 8.59375l-84.75 0l0 -130.65623zm143.53766 131.59373q-14.359375 0 -27.34375 -4.9375q-12.96875 -4.953125 -20.25 -12.796875l4.296875 -7.0937347q6.90625 7.2812347 18.5625 11.85936q11.671875 4.5625 24.5625 4.5625q18.65625 0 28.171875 -7.09375q9.53125 -7.0937347 9.53125 -18.468735q0 -8.78125 -5.046875 -14.0q-5.03125 -5.234375 -12.5 -8.03125q-7.46875 -2.796875 -20.15625 -5.78125q-14.375 -3.546875 -23.0625 -6.90625q-8.671875 -3.359375 -14.75 -10.359375q-6.0625 -7.0 -6.0625 -18.765625q0 -9.515625 5.03125 -17.453125q5.046875 -7.9375 15.40625 -12.59375q10.359375 -4.671875 25.859375 -4.671875q10.828125 0 21.28125 3.171875q10.453125 3.171875 18.09375 8.59375l-3.546875 7.640625q-7.828125 -5.40625 -17.265625 -8.203125q-9.421875 -2.796875 -18.5625 -2.796875q-18.109375 0 -27.453125 7.28125q-9.328125 7.265625 -9.328125 18.84375q0 8.78125 5.046875 14.015625q5.046875 5.21875 12.5 8.015625q7.46875 2.796875 20.359375 5.96875q14.359375 3.546875 22.9375 6.90625q8.59375 3.359375 14.65625 10.171875q6.078125 6.8125 6.078125 18.390625q0 9.515625 -5.140625 17.35936q-5.125 7.828125 -15.765625 12.5q-10.640625 4.671875 -26.140625 4.671875z" fill-rule="nonzero"/><path fill="#b7b7b7" d="m874.0 146.0l228.5039 0l0 67.49606l-228.5039 0z" fill-rule="evenodd"/><path stroke="#000000" stroke-width="1.0" stroke-linejoin="round" stroke-linecap="butt" d="m874.0 146.0l228.5039 0l0 67.49606l-228.5039 0z" fill-rule="evenodd"/><path fill="#000000" fill-opacity="0.0" d="m872.50134 213.50131l230.86609 -0.31495667" fill-rule="evenodd"/><path stroke="#666666" stroke-width="4.0" stroke-linejoin="round" stroke-linecap="butt" d="m872.50134 213.50131l230.86609 -0.31495667" fill-rule="evenodd"/><path fill="#b7b7b7" d="m486.0 349.5013l73.98425 0l0 746.99207l-73.98425 0z" fill-rule="evenodd"/><path stroke="#000000" stroke-width="1.0" stroke-linejoin="round" stroke-linecap="butt" d="m486.0 349.5013l73.98425 0l0 746.99207l-73.98425 0z" fill-rule="evenodd"/><path fill="#000000" fill-opacity="0.0" d="m483.76904 348.958l618.7401 -2.9606323" fill-rule="evenodd"/><path stroke="#666666" stroke-width="4.0" stroke-linejoin="round" stroke-linecap="butt" d="m483.76904 348.958l618.7401 -2.9606323" fill-rule="evenodd"/><path fill="#000000" fill-opacity="0.0" d="m483.76904 420.6706l619.24414 -3.1810913" fill-rule="evenodd"/><path stroke="#666666" stroke-width="4.0" stroke-linejoin="round" stroke-linecap="butt" d="m483.76904 420.6706l619.24414 -3.1810913" fill-rule="evenodd"/><path fill="#000000" fill-opacity="0.0" d="m483.76904 484.38583l622.99207 -3.5905457" fill-rule="evenodd"/><path stroke="#666666" stroke-width="4.0" stroke-linejoin="round" stroke-linecap="butt" d="m483.76904 484.38583l622.99207 -3.5905457" fill-rule="evenodd"/><path fill="#000000" fill-opacity="0.0" d="m483.76904 610.1116l622.99207 -3.5905762" fill-rule="evenodd"/><path stroke="#666666" stroke-width="4.0" stroke-linejoin="round" stroke-linecap="butt" d="m483.76904 610.1116l622.99207 -3.5905762" fill-rule="evenodd"/><path fill="#000000" fill-opacity="0.0" d="m486.4252 548.09973l622.9922 -3.5905151" fill-rule="evenodd"/><path stroke="#666666" stroke-width="4.0" stroke-linejoin="round" stroke-linecap="butt" d="m486.4252 548.09973l622.9922 -3.5905151" fill-rule="evenodd"/><path fill="#000000" fill-opacity="0.0" d="m486.4252 753.53937l622.9922 -3.5905762" fill-rule="evenodd"/><path stroke="#666666" stroke-width="4.0" stroke-linejoin="round" stroke-linecap="butt" d="m486.4252 753.53937l622.9922 -3.5905762" fill-rule="evenodd"/><path fill="#000000" fill-opacity="0.0" d="m483.76904 1096.1917l622.99207 -3.5905762" fill-rule="evenodd"/><path stroke="#666666" stroke-width="4.0" stroke-linejoin="round" stroke-linecap="butt" d="m483.76904 1096.1917l622.99207 -3.5905762" fill-rule="evenodd"/><path fill="#000000" fill-opacity="0.0" d="m871.9895 145.04462l232.5039 1.9527588" fill-rule="evenodd"/><path stroke="#666666" stroke-width="4.0" stroke-linejoin="round" stroke-linecap="butt" d="m871.9895 145.04462l232.5039 1.9527588" fill-rule="evenodd"/><path fill="#000000" fill-opacity="0.0" d="m485.75067 347.24933l-0.7559204 750.26776" fill-rule="evenodd"/><path stroke="#666666" stroke-width="4.0" stroke-linejoin="round" stroke-linecap="butt" d="m485.75067 347.24933l-0.7559204 750.26776" fill-rule="evenodd"/><path fill="#000000" fill-opacity="0.0" d="m794.0 349.0l-0.5039673 744.5039" fill-rule="evenodd"/><path stroke="#666666" stroke-width="4.0" stroke-linejoin="round" stroke-linecap="butt" d="m794.0 349.0l-0.5039673 744.5039" fill-rule="evenodd"/><path fill="#000000" fill-opacity="0.0" d="m1102.5013 146.0l0.8503418 933.8268" fill-rule="evenodd"/><path stroke="#666666" stroke-width="4.0" stroke-linejoin="round" stroke-linecap="butt" d="m1102.5013 146.0l0.8503418 933.8268" fill-rule="evenodd"/><path fill="#000000" fill-opacity="0.0" d="m560.0 349.5013l0 745.98425" fill-rule="evenodd"/><path stroke="#666666" stroke-width="4.0" stroke-linejoin="round" stroke-linecap="butt" d="m560.0 349.5013l0 745.98425" fill-rule="evenodd"/><path fill="#000000" fill-opacity="0.0" d="m874.0 145.50131l-3.4960327 948.0" fill-rule="evenodd"/><path stroke="#666666" stroke-width="4.0" stroke-linejoin="round" stroke-linecap="butt" d="m874.0 145.50131l-3.4960327 948.0" fill-rule="evenodd"/><path fill="#000000" fill-opacity="0.0" d="m948.3228 146.0l1.3543701 933.8268" fill-rule="evenodd"/><path stroke="#666666" stroke-width="4.0" stroke-linejoin="round" stroke-linecap="butt" d="m948.3228 146.0l1.3543701 933.8268" fill-rule="evenodd"/><path fill="#000000" fill-opacity="0.0" d="m1028.3229 146.0l1.354248 933.8268" fill-rule="evenodd"/><path stroke="#666666" stroke-width="4.0" stroke-linejoin="round" stroke-linecap="butt" d="m1028.3229 146.0l1.354248 933.8268" fill-rule="evenodd"/><path fill="#000000" fill-opacity="0.0" d="m640.0 349.5013l0 746.99207" fill-rule="evenodd"/><path stroke="#666666" stroke-width="4.0" stroke-linejoin="round" stroke-linecap="butt" d="m640.0 349.5013l0 746.99207" fill-rule="evenodd"/><path fill="#000000" fill-opacity="0.0" d="m716.1811 350.24146l0 745.51184" fill-rule="evenodd"/><path stroke="#666666" stroke-width="4.0" stroke-linejoin="round" stroke-linecap="butt" d="m716.1811 350.24146l0 745.51184" fill-rule="evenodd"/><path fill="#000000" fill-opacity="0.0" d="m872.50134 279.90683l230.86609 -0.31497192" fill-rule="evenodd"/><path stroke="#666666" stroke-width="4.0" stroke-linejoin="round" stroke-linecap="butt" d="m872.50134 279.90683l230.86609 -0.31497192" fill-rule="evenodd"/><path fill="#000000" fill-opacity="0.0" d="m486.4252 681.8268l622.9922 -3.5905762" fill-rule="evenodd"/><path stroke="#666666" stroke-width="4.0" stroke-linejoin="round" stroke-linecap="butt" d="m486.4252 681.8268l622.9922 -3.5905762" fill-rule="evenodd"/><path fill="#000000" fill-opacity="0.0" d="m483.76904 825.2533l622.99207 -3.5905762" fill-rule="evenodd"/><path stroke="#666666" stroke-width="4.0" stroke-linejoin="round" stroke-linecap="butt" d="m483.76904 825.2533l622.99207 -3.5905762" fill-rule="evenodd"/><path fill="#000000" fill-opacity="0.0" d="m486.4252 896.96716l622.9922 -3.5905151" fill-rule="evenodd"/><path stroke="#666666" stroke-width="4.0" stroke-linejoin="round" stroke-linecap="butt" d="m486.4252 896.96716l622.9922 -3.5905151" fill-rule="evenodd"/><path fill="#000000" fill-opacity="0.0" d="m487.1811 968.6811l622.9921 -3.5905151" fill-rule="evenodd"/><path stroke="#666666" stroke-width="4.0" stroke-linejoin="round" stroke-linecap="butt" d="m487.1811 968.6811l622.9921 -3.5905151" fill-rule="evenodd"/><path fill="#000000" fill-opacity="0.0" d="m486.80316 1032.4357l622.9921 -3.5905762" fill-rule="evenodd"/><path stroke="#666666" stroke-width="4.0" stroke-linejoin="round" stroke-linecap="butt" d="m486.80316 1032.4357l622.9921 -3.5905762" fill-rule="evenodd"/><defs><linearGradient id="p.1" gradientUnits="userSpaceOnUse" gradientTransform="matrix(28.965404686291876 0.0 0.0 28.965404686291876 0.0 0.0)" spreadMethod="pad" x1="24.775052527120327" y1="14.761299411680769" x2="24.774947754653457" y2="43.72670409778315"><stop offset="0.0" stop-color="#51ab2a"/><stop offset="1.0" stop-color="#203e13"/></linearGradient></defs><path fill="url(#p.1)" d="m717.61945 872.054l199.93756 0l0 -444.48447l298.10913 0l0 444.48447l199.9375 0l-348.99207 394.50763z" fill-rule="evenodd"/><path stroke="#274e13" stroke-width="8.0" stroke-linejoin="round" stroke-linecap="butt" d="m717.61945 872.054l199.93756 0l0 -444.48447l298.10913 0l0 444.48447l199.9375 0l-348.99207 394.50763z" fill-rule="evenodd"/></g></svg>