<?xml version='1.0' encoding='utf-8'?>
<svg xmlns:xlink="http://www.w3.org/1999/xlink" xmlns="http://www.w3.org/2000/svg" id="svg1396" version="1.1" viewBox="0 0 507.99999 285.75001" height="1080" width="1920"> <defs id="defs1390"> <linearGradient y2="138.25" x2="1058.3334" y1="402.83334" x1="555.625" gradientTransform="translate(-696.65126,5253.0375)" gradientUnits="userSpaceOnUse" id="linearGradient9054" xlink:href="#linearGradient964"/> <linearGradient id="linearGradient964"> <stop id="stop960" offset="0" style="stop-color:#f2f2f2;stop-opacity:1;"/> <stop id="stop962" offset="1" style="stop-color:#f2f2f2;stop-opacity:1"/> </linearGradient> </defs> <metadata id="metadata1393"> </metadata> <g transform="translate(0,-11.249992)" id="layer1"> <g id="g9390" transform="translate(114.56794,-5331.354)"> <rect style="color:#000000;clip-rule:nonzero;display:inline;overflow:visible;visibility:visible;opacity:1;isolation:auto;mix-blend-mode:normal;color-interpolation:sRGB;color-interpolation-filters:linearRGB;solid-color:#000000;solid-opacity:1;fill:url(#linearGradient9054);fill-opacity:1;fill-rule:nonzero;stroke:none;stroke-width:0.079375;stroke-linecap:round;stroke-linejoin:round;stroke-miterlimit:4;stroke-dasharray:none;stroke-dashoffset:0;stroke-opacity:1;color-rendering:auto;image-rendering:auto;shape-rendering:auto;text-rendering:auto;enable-background:accumulate" id="rect9052" width="508" height="285.75" x="-114.56794" y="5342.604"/> <path id="path9056" d="m 248.29545,5405.6459 a 14.515119,14.515119 0 0 0 -14.51512,14.5151 14.515119,14.515119 0 0 0 2.93223,8.7249 l -56.49329,79.0907 a 14.515119,14.515119 0 0 0 -4.49942,-0.7247 14.515119,14.515119 0 0 0 -6.707,1.6497 l -53.00683,-53.0071 a 14.515119,14.515119 0 0 0 1.65336,-6.7032 14.515119,14.515119 0 0 0 -14.51512,-14.5152 14.515119,14.515119 0 0 0 -14.51512,14.5152 14.515119,14.515119 0 0 0 3.00311,8.8239 l -55.66804,79.3188 a 14.515119,14.515119 0 0 0 -5.39554,-1.052 14.515119,14.515119 0 0 0 -14.51512,14.5151 14.515119,14.515119 0 0 0 14.51512,14.5151 14.515119,14.515119 0 0 0 14.51511,-14.5151 14.515119,14.515119 0 0 0 -2.36352,-7.9298 l 56.03659,-79.845 a 14.515119,14.515119 0 0 0 4.38741,0.6841 14.515119,14.515119 0 0 0 6.70673,-1.6498 l 53.00712,53.0072 a 14.515119,14.515119 0 0 0 -1.65337,6.7032 14.515119,14.515119 0 0 0 14.51511,14.5151 14.515119,14.515119 0 0 0 14.51513,-14.5151 14.515119,14.515119 0 0 0 -2.93195,-8.7246 l 56.49359,-79.091 a 14.515119,14.515119 0 0 0 4.49883,0.7247 14.515119,14.515119 0 0 0 14.51512,-14.5151 14.515119,14.515119 0 0 0 -14.51512,-14.5151 z" style="color:#000000;clip-rule:nonzero;display:inline;overflow:visible;visibility:visible;opacity:1;isolation:auto;mix-blend-mode:normal;color-interpolation:sRGB;color-interpolation-filters:linearRGB;solid-color:#000000;solid-opacity:1;fill:#5599ff;fill-opacity:1;fill-rule:nonzero;stroke:none;stroke-width:0.29030237;stroke-linecap:round;stroke-linejoin:round;stroke-miterlimit:4;stroke-dasharray:none;stroke-dashoffset:0;stroke-opacity:1;color-rendering:auto;image-rendering:auto;shape-rendering:auto;text-rendering:auto;enable-background:accumulate"/> <path style="opacity:0.1;fill:#000000;fill-rule:evenodd;stroke:none;stroke-width:0.99999994px;stroke-linecap:butt;stroke-linejoin:miter;stroke-opacity:1" d="m 970.46484,20441.105 -0.0605,0.04 a 54.860292,54.860292 0 0 1 0.0195,0.01 54.860292,54.860292 0 0 1 4.17383,3.322 54.86029,54.86029 0 0 1 0.18164,0.159 54.860292,54.860292 0 0 1 3.66797,3.57 54.86029,54.86029 0 0 1 0.33007,0.355 54.860292,54.860292 0 0 1 3.1211,3.715 54.86029,54.86029 0 0 1 0.46679,0.614 54.860292,54.860292 0 0 1 2.57422,3.771 54.86029,54.86029 0 0 1 0.54883,0.893 54.860292,54.860292 0 0 1 2.05664,3.777 54.86029,54.86029 0 0 1 0.57227,1.187 54.860292,54.860292 0 0 1 1.55664,3.69 54.86029,54.86029 0 0 1 0.55273,1.517 54.860292,54.860292 0 0 1 1.10156,3.581 54.86029,54.86029 0 0 1 0.45899,1.796 54.860292,54.860292 0 0 1 0.68164,3.381 54.86029,54.86029 0 0 1 0.33203,2.2 54.860292,54.860292 0 0 1 0.30274,3.044 54.86029,54.86029 0 0 1 0.19531,3.914 54.860292,54.860292 0 0 1 -0.23438,4.682 54.86029,54.86029 0 0 1 -0.32422,2.678 54.860292,54.860292 0 0 1 -0.41992,2.769 54.86029,54.86029 0 0 1 -0.57812,2.58 54.860292,54.860292 0 0 1 -0.70508,2.76 54.86029,54.86029 0 0 1 -0.82422,2.479 54.860292,54.860292 0 0 1 -0.98047,2.689 54.86029,54.86029 0 0 1 -1.07812,2.41 54.860292,54.860292 0 0 1 -1.24024,2.563 54.86029,54.86029 0 0 1 -1.29883,2.267 54.860292,54.860292 0 0 1 -1.49414,2.44 54.86029,54.86029 0 0 1 -1.55273,2.168 54.860292,54.860292 0 0 1 -1.69336,2.228 54.86029,54.86029 0 0 1 -1.77734,2.024 54.860292,54.860292 0 0 1 -1.9043,2.043 54.86029,54.86029 0 0 1 -1.93555,1.804 54.860292,54.860292 0 0 1 -2.14648,1.885 54.86029,54.86029 0 0 1 -2.07422,1.576 54.860292,54.860292 0 0 1 -2.33399,1.67 54.86029,54.86029 0 0 1 -2.2246,1.364 54.860292,54.860292 0 0 1 -2.50196,1.435 54.86029,54.86029 0 0 1 -2.32617,1.123 54.860292,54.860292 0 0 1 -2.64453,1.184 54.86029,54.86029 0 0 1 -2.41211,0.881 54.860292,54.860292 0 0 1 -2.77148,0.92 54.86029,54.86029 0 0 1 -2.49805,0.638 54.860292,54.860292 0 0 1 -2.81836,0.631 54.86029,54.86029 0 0 1 -2.58203,0.391 54.860292,54.860292 0 0 1 -2.83789,0.345 54.86029,54.86029 0 0 1 -4.51367,0.227 54.860292,54.860292 0 0 1 -0.13282,0 54.860292,54.860292 0 0 1 -3.28125,-0.172 54.86029,54.86029 0 0 1 -2.58984,-0.176 54.860292,54.860292 0 0 1 -2.78711,-0.426 54.86029,54.86029 0 0 1 -2.64063,-0.447 54.860292,54.860292 0 0 1 -2.69335,-0.693 54.86029,54.86029 0 0 1 -3.01172,-0.824 l -213.51953,298.923 a 54.860292,54.860292 0 0 1 0.0234,0.03 54.860292,54.860292 0 0 1 2.20508,3.244 54.86029,54.86029 0 0 1 1.45313,2.361 54.860292,54.860292 0 0 1 1.29296,2.385 54.86029,54.86029 0 0 1 1.19922,2.474 54.860292,54.860292 0 0 1 1.06836,2.549 54.86029,54.86029 0 0 1 0.93164,2.537 54.860292,54.860292 0 0 1 0.80664,2.637 54.86029,54.86029 0 0 1 0.68555,2.674 54.860292,54.860292 0 0 1 0.52735,2.639 54.86029,54.86029 0 0 1 0.41992,2.753 54.860292,54.860292 0 0 1 0.26367,2.707 54.86029,54.86029 0 0 1 0.20508,3.979 54.860292,54.860292 0 0 1 -0.23438,4.678 54.86029,54.86029 0 0 1 -0.33008,2.722 54.860292,54.860292 0 0 1 -0.41015,2.707 54.86029,54.86029 0 0 1 -0.5918,2.643 54.860292,54.860292 0 0 1 -0.6875,2.695 54.86029,54.86029 0 0 1 -0.86133,2.588 54.860292,54.860292 0 0 1 -0.9414,2.576 54.86029,54.86029 0 0 1 -1.11524,2.496 54.860292,54.860292 0 0 1 -1.19726,2.477 54.86029,54.86029 0 0 1 -1.34766,2.35 54.860292,54.860292 0 0 1 -1.45703,2.377 54.86029,54.86029 0 0 1 -1.56055,2.181 54.860292,54.860292 0 0 1 -1.6914,2.225 54.86029,54.86029 0 0 1 -1.75586,2 54.860292,54.860292 0 0 1 -1.9375,2.08 54.86029,54.86029 0 0 1 -1.89649,1.767 54.860292,54.860292 0 0 1 -2.17773,1.913 54.86029,54.86029 0 0 1 -2.06055,1.566 54.860292,54.860292 0 0 1 -2.33984,1.674 54.86029,54.86029 0 0 1 -2.26758,1.39 54.860292,54.860292 0 0 1 -2.42774,1.393 54.86029,54.86029 0 0 1 -2.4375,1.178 54.860292,54.860292 0 0 1 -2.52929,1.131 54.86029,54.86029 0 0 1 -2.54297,0.927 54.860292,54.860292 0 0 1 -2.64258,0.879 54.86029,54.86029 0 0 1 -2.57617,0.658 54.860292,54.860292 0 0 1 -2.76367,0.62 54.86029,54.86029 0 0 1 -2.6211,0.396 54.860292,54.860292 0 0 1 -2.80859,0.34 54.86029,54.86029 0 0 1 -4.51367,0.228 54.860292,54.860292 0 0 1 -0.13477,0 54.860292,54.860292 0 0 1 -4.70312,-0.238 54.86029,54.86029 0 0 1 -2.62305,-0.318 54.860292,54.860292 0 0 1 -2.80469,-0.424 54.86029,54.86029 0 0 1 -2.58984,-0.58 54.860292,54.860292 0 0 1 -2.74414,-0.701 54.86029,54.86029 0 0 1 -2.51172,-0.836 54.860292,54.860292 0 0 1 -2.65234,-0.967 54.86029,54.86029 0 0 1 -2.42969,-1.086 54.860292,54.860292 0 0 1 -2.55274,-1.236 54.86029,54.86029 0 0 1 -2.26757,-1.299 54.860292,54.860292 0 0 1 -2.43946,-1.496 54.86029,54.86029 0 0 1 -2.16015,-1.545 54.860292,54.860292 0 0 1 -2.24024,-1.701 54.86029,54.86029 0 0 1 -2.00586,-1.762 54.860292,54.860292 0 0 1 -2.05859,-1.918 54.86029,54.86029 0 0 1 -1.83594,-1.971 54.860292,54.860292 0 0 1 -1.83008,-2.084 54.86029,54.86029 0 0 1 -1.64648,-2.166 54.860292,54.860292 0 0 1 -1.60742,-2.248 54.86029,54.86029 0 0 1 -1.41993,-2.318 54.860292,54.860292 0 0 1 -1.36914,-2.385 54.86029,54.86029 0 0 1 -1.20507,-2.496 54.860292,54.860292 0 0 1 -1.10157,-2.461 54.86029,54.86029 0 0 1 -0.95117,-2.602 54.860292,54.860292 0 0 1 -0.85937,-2.593 54.86029,54.86029 0 0 1 -0.67188,-2.625 54.860292,54.860292 0 0 1 -0.60742,-2.705 54.86029,54.86029 0 0 1 -0.41211,-2.729 54.860292,54.860292 0 0 1 -0.32422,-2.672 54.86029,54.86029 0 0 1 -0.23633,-4.695 54.860292,54.860292 0 0 1 0.25586,-4.924 54.86029,54.86029 0 0 1 0.36133,-2.726 54.860292,54.860292 0 0 1 0.41406,-2.705 54.86029,54.86029 0 0 1 0.62696,-2.653 54.860292,54.860292 0 0 1 0.68359,-2.664 54.86029,54.86029 0 0 1 0.90234,-2.617 54.860292,54.860292 0 0 1 0.93164,-2.539 54.86029,54.86029 0 0 1 2.07422,-4.496 v 0 l -93.70117,-93.701 h -0.002 l -353.60352,243.965 a 54.860292,54.860292 0 0 1 -0.0215,0.06 54.860292,54.860292 0 0 1 -1.75586,5.11 54.86029,54.86029 0 0 1 -0.004,0.01 54.860292,54.860292 0 0 1 -0.0508,0.112 54.860292,54.860292 0 0 1 -2.23242,4.853 54.86029,54.86029 0 0 1 -0.0918,0.162 54.860292,54.860292 0 0 1 -2.67968,4.561 54.86029,54.86029 0 0 1 -0.16407,0.228 54.860292,54.860292 0 0 1 -3.04297,4.17 54.86029,54.86029 0 0 1 -0.44726,0.506 54.860292,54.860292 0 0 1 -3.19727,3.566 54.86029,54.86029 0 0 1 -0.60742,0.567 54.860292,54.860292 0 0 1 -3.43164,3.133 54.86029,54.86029 0 0 1 -0.72852,0.554 54.860292,54.860292 0 0 1 -3.65039,2.715 54.86029,54.86029 0 0 1 -0.92773,0.57 54.860292,54.860292 0 0 1 -3.74805,2.247 54.86029,54.86029 0 0 1 -1.20507,0.582 54.860292,54.860292 0 0 1 -3.73243,1.755 54.86029,54.86029 0 0 1 -1.41797,0.518 54.860292,54.860292 0 0 1 -3.72851,1.318 54.86029,54.86029 0 0 1 -1.71485,0.438 54.860292,54.860292 0 0 1 -3.5664,0.873 54.86029,54.86029 0 0 1 -2.0293,0.307 54.860292,54.860292 0 0 1 -3.39062,0.476 54.86029,54.86029 0 0 1 -4.68164,0.235 54.860292,54.860292 0 0 1 -0.4375,0.02 54.860292,54.860292 0 0 1 -4.48438,-0.211 h -0.002 l -0.0332,0.02 238.45508,238.455 H 1486.9881 v -533.2 z m -448.64062,309.528 -106.63867,-106.639 a 54.860292,54.860292 0 0 1 -25.34961,6.235 54.860292,54.860292 0 0 1 -16.58203,-2.586 l -211.79102,301.777 a 54.860292,54.860292 0 0 1 8.93164,29.971 54.860292,54.860292 0 0 1 -2.17187,15.199 z m -410.80664,283.402 -0.002,0.02 0.0273,-0.02 a 54.860292,54.860292 0 0 1 -0.0254,0 z" id="path9071" transform="scale(0.26458333)"/> </g> </g> </svg>