<?xml version="1.0" encoding="UTF-8"?>
<!DOCTYPE svg  PUBLIC '-//W3C//DTD SVG 1.1//EN'  'http://www.w3.org/Graphics/SVG/1.1/DTD/svg11.dtd'>
<svg enable-background="new 0 0 67 61.15" version="1.1" viewBox="0 0 67 61.15" xml:space="preserve" xmlns="http://www.w3.org/2000/svg" xmlns:xlink="http://www.w3.org/1999/xlink">
<symbol id="d" viewBox="0 -61.4 66.2 61.4">
				<use transform="translate(0 -59.05)" y="-2.35" width="66.2" height="2.359" enable-background="new" opacity=".25" xlink:href="#e"/>
			<g clip-rule="evenodd" fill-rule="evenodd">
				<path d="m33.8-17.5l20.65-0.3 1.1-0.75c0.733-0.667 1.183-1.417 1.35-2.25 0.267-1.333 0.45-3.3 0.55-5.9l3.2-5.3c2.2-3.8 3.45-6.35 3.75-7.65 0.466-2.1 0.616-5.483 0.45-10.15l-1.6-10.2-60.3 0.35-1.3 9.85c-0.134 4.667 0.017 8.05 0.45 10.15 0.3 1.3 1.55 3.85 3.75 7.65 1.1 1.9 2.167 3.667 3.2 5.3 0.1 2.6 0.3 4.567 0.6 5.9 0.167 0.833 0.633 1.583 1.4 2.25 0.367 0.333 0.716 0.583 1.05 0.75l21.7 0.3z" fill="#D0E0E0"/>
				<path d="m28.25-18l9.75-0.1 1-0.2c0.733-0.167 1.284-0.433 1.65-0.8 0.233-0.233-0.934-0.417-3.5-0.55-2.333-0.133-4.134-0.167-5.4-0.1-1.433-0.034-2.5-0.05-3.2-0.05-1.233-0.033-2.083 0.15-2.55 0.55-0.267 0.233 0.034 0.517 0.9 0.85 0.433 0.167 0.884 0.3 1.35 0.4z" fill="#B0BFBF"/>
				<path d="m4.6-34.2l1 1.75c0.534 0 4.434 0.083 11.7 0.25 7.267 0.2 12.783 0.3 16.55 0.3 6.3 0 15.267-0.05 26.9-0.15l1.1-2-30.15 0.3c-5.467 0.1-14.5-0.05-27.1-0.45z" fill="#DCEDED"/>
				<path d="m1.85-41.25l0.25 1.6c0.133 0.534 0.483 1.434 1.05 2.7l0.7 1.05 9.65-0.9c8.1-0.533 16.267-0.733 24.5-0.6 11.333 0.167 19.583 0.717 24.75 1.65 0.9-1.7 1.45-3 1.65-3.9l0.2-1.25c-5.133-0.1-15.583-0.183-31.35-0.25-15.267-0.1-25.733-0.134-31.4-0.1z" fill="#C4D4D4"/>
				<path d="m43.9-40.35c7.767 0.066 12.8 0.267 15.1 0.6 2.9 0.433 4.483 1.017 4.75 1.75 0.333-0.667 0.55-1.217 0.65-1.65l0.25-1.45c-14.134-0.367-25.134-0.434-33-0.2-8.534 0.267-18.35 0.4-29.45 0.4-0.167 0-0.2 0.417-0.1 1.25 0.1 0.434 0.333 1.05 0.7 1.85 1.367-1.133 6.716-1.867 16.05-2.2 8.467-0.3 16.817-0.417 25.05-0.35z" fill="#E0F2F2"/>
				<path d="m31.4-21.35c3.667-0.133 7.917-0.2 12.75-0.2 5.767 0 10.05 0.083 12.85 0.25 0.2-1.367 0.333-2.8 0.4-4.3l0.05-1.75 2-2.75c-2.367 0.133-4.25 0.167-5.65 0.1-6-0.267-16.15-0.4-30.45-0.4-5.267 0-10.9-0.183-16.9-0.55l2.6 3.6 0.05 1.3c0.1 1.8 0.25 3.367 0.45 4.7 0.9 0 4 0.017 9.3 0.05 5.434 0.033 9.617 0.016 12.55-0.05z" fill="#A3B0B0"/>
				<path d="m57.45-27.35l0.85-0.65 1.4-2.3c-13.1-0.267-22.05-0.367-26.85-0.3-3.066 0.066-7.75 0.05-14.05-0.05-5.2-0.066-9.3-0.15-12.3-0.25l2.2 3.65 48.75-0.1z" fill="#C4D4D4"/>
				<path d="m2.95-59.65l-1.25 9.65c0 2.233 0.066 5.083 0.2 8.55 6.767 0.767 13.616 0.867 20.55 0.3 9.967-0.8 24.033-0.983 42.2-0.55l0.2-8.3-1.6-10-60.3 0.35z" fill="#A3B0B0"/>
				<path d="m2.95-59.65l-1.25 9.65v0.35c4.267-0.667 9.283-0.95 15.05-0.85l40.25 1 7.85-0.3v-0.2l-1.6-10-60.3 0.35z" fill="#9BA8A8"/>
				<path d="m2.95-59.65l-0.5 3.85c0.934-0.033 3.85-0.15 8.75-0.35 4.967-0.167 8.816-0.2 11.55-0.1 3.1 0.1 8.6 0.133 16.5 0.1 4.1-0.033 8.6-0.066 13.5-0.1 1.833 0 5.55 0.133 11.15 0.4l-0.65-4.15-60.3 0.35z" fill="#8A9696"/>
				<path d="m57.45-26c-9.667-0.233-18.2-0.367-25.6-0.4-12.167 0.1-19.833 0.117-23 0.05l0.2 0.35 0.05 1.65 22.05 0.45c9.8 0.2 18.55 0.434 26.25 0.7l0.05-2.8z" fill="#8A9696"/>
				<polygon points="38.2 -19.1 28.5 -19.1 28.5 -12.5 38.2 -12.5" fill="#B1BFBF"/>
				<polygon points="38.2 -19.1 28.5 -19.1 28.5 -18.25 38.2 -18.25" fill="#929E9E"/>
				<polygon points="38.2 -16.85 28.5 -16.85 28.5 -12.5 38.2 -12.5" fill="#929E9E"/>
				<polygon points="38.2 -15.25 28.5 -15.25 28.5 -14 38.2 -14" fill="#768080"/>
				<path d="m21.25-20.5l35.7 0.2 0.05-1c-3.366-0.233-8.716-0.35-16.05-0.35l-31.4 0.3 0.4 1.35 2.85-0.25c2.5-0.167 5.317-0.25 8.45-0.25z" fill="#ECFFFF"/>
				<path d="m5.15-44.3c1 0.4 10.483 0.6 28.45 0.6 17.934 0 27.317-0.2 28.15-0.6 0.867-0.433 1.317-2.467 1.35-6.1 0.067-3.633-0.383-5.65-1.35-6.05-1-0.433-10.55-0.633-28.65-0.6-18.1 0-27.417 0.2-27.95 0.6-0.867 0.633-1.317 2.7-1.35 6.2-0.067 3.566 0.384 5.55 1.35 5.95z" fill="#C9D9D9"/>
				<path d="m5.15-44.3c1 0.4 10.483 0.6 28.45 0.6 17.934 0 27.317-0.2 28.15-0.6 0.867-0.4 1.317-2.316 1.35-5.75 0.067-3.467-0.383-5.4-1.35-5.8-1-0.367-10.55-0.55-28.65-0.55s-27.416 0.183-27.95 0.55c-0.867 0.633-1.317 2.617-1.35 5.95-0.067 3.366 0.384 5.233 1.35 5.6z" fill="#4B5252"/>
				<path d="m6.5-54.75l-1.15-1.15-0.2 0.05c-0.867 0.633-1.317 2.617-1.35 5.95-0.067 3.367 0.383 5.233 1.35 5.6 1 0.4 10.483 0.6 28.45 0.6 17.934 0 27.317-0.2 28.15-0.6 0.867-0.4 1.317-2.316 1.35-5.75 0.067-3.467-0.383-5.4-1.35-5.8l-0.3-0.05-1.45 1.3-53.5-0.15z" fill="#4B5252"/>
				<path d="m5.95-45.2c0.967 0.3 10.2 0.45 27.7 0.45s26.65-0.15 27.45-0.45c0.833-0.333 1.267-1.933 1.3-4.8 0.066-2.867-0.367-4.45-1.3-4.75-0.966-0.333-10.267-0.5-27.9-0.5s-26.717 0.167-27.25 0.5c-0.833 0.5-1.267 2.133-1.3 4.9-0.067 2.767 0.367 4.316 1.3 4.65z" fill="#E0F2F2"/>
				<path d="m5.95-46c0.967 0.267 10.2 0.4 27.7 0.4s26.65-0.133 27.45-0.4c0.833-0.3 1.267-1.717 1.3-4.25 0.066-2.534-0.367-3.95-1.3-4.25-0.966-0.267-10.267-0.4-27.9-0.4s-26.717 0.133-27.25 0.4c-0.833 0.433-1.267 1.883-1.3 4.35-0.067 2.5 0.367 3.883 1.3 4.15z" fill="#B9C7C7"/>
				<path d="m18.75-48.1c-2.5 0.133-5.466 0.1-8.9-0.1-2.033-0.1-3.733-0.233-5.1-0.4 0.167 1.5 0.567 2.367 1.2 2.6 0.967 0.267 10.2 0.4 27.7 0.4s26.65-0.133 27.45-0.4c0.567-0.233 0.967-1.167 1.2-2.8l-19.15-0.3c-1.5 0-5.134 0.117-10.9 0.35-5.9 0.233-10.4 0.45-13.5 0.65z" fill="#B1BFBF"/>
				<path d="m5.95-54.5c-0.566 0.333-0.967 1.316-1.2 2.95l5-0.55c3.967-0.367 7.434-0.5 10.4-0.4 10.7 0.367 18.2 0.483 22.5 0.35 3.2-0.1 9.783 0.15 19.75 0.75-0.167-1.833-0.6-2.867-1.3-3.1-0.966-0.267-10.267-0.4-27.9-0.4s-26.717 0.133-27.25 0.4z" fill="#B1BFBF"/>
					<path d="m20.6-28.9c0-0.733-1.083-1.1-3.25-1.1-2.1 0-3.133 0.367-3.1 1.1 0.034 0.333 0.35 0.483 0.95 0.45 0.367-0.033 1.083-0.083 2.15-0.15 0.567 0 1.317 0.117 2.25 0.35 0.667 0.1 1-0.117 1-0.65z" fill="#414545"/>
					<path d="m17.45-27.85c2.033 0 3.05-0.233 3.05-0.7s-1.017-0.7-3.05-0.7c-2 0-3 0.233-3 0.7 0 0.2 0.3 0.367 0.9 0.5 0.567 0.133 1.267 0.2 2.1 0.2z" fill="#6A7070"/>
					<path d="m16.5-30.75c2.134 0 3.167-0.567 3.1-1.7-0.033-0.367-0.4-0.667-1.1-0.9-0.667-0.2-1.45-0.3-2.35-0.3-0.833 0-1.534 0.1-2.1 0.3-0.6 0.233-0.917 0.533-0.95 0.9-0.066 1.133 1.067 1.7 3.4 1.7z" fill="#414545"/>
					<path d="m18.5-31c0.6-0.167 0.9-0.383 0.9-0.65s-0.3-0.483-0.9-0.65c-0.6-0.2-1.316-0.3-2.15-0.3-0.8 0-1.5 0.1-2.1 0.3-0.6 0.167-0.9 0.383-0.9 0.65s0.3 0.483 0.9 0.65c0.6 0.2 1.3 0.3 2.1 0.3 0.834 0 1.55-0.1 2.15-0.3z" fill="#6A7070"/>
					<path d="m17.75-36.45c0-0.467-0.316-0.85-0.95-1.15-0.6-0.3-1.367-0.483-2.3-0.55-0.966-0.033-1.783 0.1-2.45 0.4-0.7 0.3-1.05 0.683-1.05 1.15-0.033 1.133 1.083 1.733 3.35 1.8 2.267 0.133 3.4-0.417 3.4-1.65z" fill="#414545"/>
					<path d="m17.5-35.7c0.034-0.367-0.267-0.667-0.9-0.9-0.6-0.267-1.35-0.417-2.25-0.45-0.867-0.066-1.617 0.017-2.25 0.25s-0.95 0.533-0.95 0.9c-0.034 0.333 0.267 0.633 0.9 0.9 0.566 0.267 1.3 0.433 2.2 0.5 0.9 0.033 1.667-0.067 2.3-0.3s0.95-0.533 0.95-0.9z" fill="#6A7070"/>
					<path d="m32.4-28.9c0-0.733-1.083-1.1-3.25-1.1-2.1 0-3.134 0.367-3.1 1.1 0.033 0.333 0.35 0.483 0.95 0.45 0.367-0.033 1.083-0.083 2.15-0.15 0.566 0 1.316 0.117 2.25 0.35 0.667 0.1 1-0.117 1-0.65z" fill="#404545"/>
					<path d="m32.3-28.55c0-0.2-0.3-0.367-0.9-0.5-0.567-0.133-1.284-0.2-2.15-0.2-2 0-3 0.233-3 0.7 0 0.2 0.3 0.367 0.9 0.5 0.566 0.133 1.267 0.2 2.1 0.2 2.034 0 3.05-0.233 3.05-0.7z" fill="#687070"/>
					<path d="m31.4-32.45c-0.034-0.367-0.4-0.667-1.1-0.9-0.667-0.2-1.45-0.3-2.35-0.3-0.833 0-1.533 0.1-2.1 0.3-0.6 0.233-0.917 0.533-0.95 0.9-0.067 1.133 1.066 1.7 3.4 1.7 2.134 0 3.167-0.567 3.1-1.7z" fill="#404545"/>
					<path d="m31.2-31.65c0-0.267-0.3-0.483-0.9-0.65-0.6-0.2-1.317-0.3-2.15-0.3-0.8 0-1.5 0.1-2.1 0.3-0.6 0.167-0.9 0.383-0.9 0.65s0.3 0.483 0.9 0.65c0.6 0.2 1.3 0.3 2.1 0.3 0.833 0 1.55-0.1 2.15-0.3 0.6-0.167 0.9-0.383 0.9-0.65z" fill="#687070"/>
					<path d="m30.9-36.6c0-0.434-0.317-0.817-0.95-1.15-0.6-0.3-1.367-0.467-2.3-0.5-0.967-0.067-1.784 0.066-2.45 0.4-0.7 0.3-1.05 0.683-1.05 1.15-0.034 1.067 1.083 1.667 3.35 1.8 2.267 0.067 3.4-0.5 3.4-1.7z" fill="#404545"/>
					<path d="m30.65-35.8c0.033-0.367-0.267-0.683-0.9-0.95-0.6-0.267-1.35-0.417-2.25-0.45-0.866-0.067-1.616 0.017-2.25 0.25-0.633 0.233-0.95 0.533-0.95 0.9-0.034 0.367 0.267 0.684 0.9 0.95 0.6 0.267 1.333 0.417 2.2 0.45 0.9 0.034 1.667-0.066 2.3-0.3s0.95-0.517 0.95-0.85z" fill="#687070"/>
					<path d="m30.65-35.8c0.033-0.367-0.267-0.683-0.9-0.95-0.6-0.267-1.35-0.417-2.25-0.45-0.866-0.067-1.616 0.017-2.25 0.25-0.633 0.233-0.95 0.533-0.95 0.9-0.034 0.367 0.267 0.684 0.9 0.95 0.6 0.267 1.333 0.417 2.2 0.45 0.9 0.034 1.667-0.066 2.3-0.3s0.95-0.517 0.95-0.85z" fill="#687070"/>
					<path d="m35.95-28.9c0 0.534 0.333 0.75 1 0.65 0.4-0.067 1.15-0.184 2.25-0.35 0.566 0 1.283 0.05 2.15 0.15 0.6 0.033 0.917-0.117 0.95-0.45 0.033-0.733-1-1.1-3.1-1.1-2.166 0-3.25 0.367-3.25 1.1z" fill="#404545"/>
					<path d="m36.05-28.55c0 0.467 1.017 0.7 3.05 0.7 0.833 0 1.534-0.067 2.1-0.2 0.6-0.133 0.9-0.3 0.9-0.5 0-0.467-1-0.7-3-0.7-2.033 0-3.05 0.233-3.05 0.7z" fill="#687070"/>
					<path d="m36.95-32.45c-0.066 1.133 0.967 1.7 3.1 1.7 2.333 0 3.466-0.567 3.4-1.7-0.033-0.367-0.35-0.667-0.95-0.9-0.566-0.2-1.283-0.3-2.15-0.3s-1.633 0.1-2.3 0.3c-0.7 0.233-1.067 0.533-1.1 0.9z" fill="#404545"/>
					<path d="m37.15-31.65c0 0.267 0.3 0.483 0.9 0.65 0.6 0.2 1.316 0.3 2.15 0.3s1.533-0.1 2.1-0.3c0.6-0.167 0.9-0.383 0.9-0.65s-0.3-0.483-0.9-0.65c-0.567-0.2-1.267-0.3-2.1-0.3s-1.55 0.1-2.15 0.3c-0.6 0.167-0.9 0.383-0.9 0.65z" fill="#687070"/>
					<path d="m37.45-36.6c0 1.2 1.133 1.767 3.4 1.7 2.267-0.133 3.383-0.733 3.35-1.8 0-0.467-0.35-0.85-1.05-1.15-0.667-0.333-1.483-0.467-2.45-0.4-0.934 0.033-1.717 0.2-2.35 0.5-0.6 0.3-0.9 0.683-0.9 1.15z" fill="#404545"/>
					<path d="m37.7-35.8c0 0.333 0.316 0.617 0.95 0.85 0.633 0.233 1.383 0.333 2.25 0.3 0.9-0.033 1.65-0.183 2.25-0.45 0.633-0.267 0.933-0.583 0.9-0.95 0-0.367-0.317-0.667-0.95-0.9s-1.4-0.317-2.3-0.25c-0.867 0.033-1.6 0.183-2.2 0.45-0.633 0.267-0.933 0.583-0.9 0.95z" fill="#687070"/>
					<path d="m47.3-28.9c0 0.534 0.333 0.75 1 0.65 0.4-0.067 1.15-0.184 2.25-0.35 0.566 0 1.283 0.05 2.15 0.15 0.6 0.033 0.917-0.117 0.95-0.45 0.033-0.733-1-1.1-3.1-1.1-0.9 0-1.65 0.083-2.25 0.25-0.666 0.2-1 0.483-1 0.85z" fill="#404545"/>
					<path d="m47.4-28.55c0 0.2 0.3 0.367 0.9 0.5 0.566 0.133 1.283 0.2 2.15 0.2 0.833 0 1.533-0.067 2.1-0.2 0.6-0.133 0.9-0.3 0.9-0.5 0-0.467-1-0.7-3-0.7-2.033 0-3.05 0.233-3.05 0.7z" fill="#687070"/>
					<path d="m48.3-32.45c-0.067 1.133 0.966 1.7 3.1 1.7 2.333 0 3.466-0.567 3.4-1.7-0.034-0.367-0.35-0.667-0.95-0.9-0.566-0.2-1.283-0.3-2.15-0.3s-1.633 0.1-2.3 0.3c-0.7 0.233-1.067 0.533-1.1 0.9z" fill="#404545"/>
					<path d="m48.5-31.65c0 0.267 0.3 0.483 0.9 0.65 0.6 0.2 1.316 0.3 2.15 0.3s1.533-0.1 2.1-0.3c0.6-0.167 0.9-0.383 0.9-0.65s-0.3-0.483-0.9-0.65c-0.567-0.2-1.267-0.3-2.1-0.3s-1.55 0.1-2.15 0.3c-0.6 0.167-0.9 0.383-0.9 0.65z" fill="#687070"/>
					<path d="m50.15-36.45c0 1.233 1.133 1.783 3.4 1.65 2.267-0.066 3.383-0.667 3.35-1.8 0-0.467-0.35-0.85-1.05-1.15-0.667-0.3-1.483-0.434-2.45-0.4s-1.75 0.217-2.35 0.55c-0.6 0.3-0.9 0.683-0.9 1.15z" fill="#404545"/>
					<path d="m50.4-35.7c0 0.367 0.316 0.667 0.95 0.9s1.4 0.333 2.3 0.3c0.9-0.067 1.65-0.233 2.25-0.5s0.883-0.567 0.85-0.9c0-0.367-0.316-0.667-0.95-0.9s-1.383-0.316-2.25-0.25c-0.9 0.033-1.65 0.184-2.25 0.45-0.633 0.233-0.933 0.533-0.9 0.9z" fill="#687070"/>
				<path d="m35.5-25.25c3.3 0.066 10.617 0.183 21.95 0.35v-1.1c-9.667-0.233-18.2-0.367-25.6-0.4-12.167 0.1-19.833 0.117-23 0.05l0.2 0.35v0.75c12.6-0.133 21.417-0.133 26.45 0z" fill="#768080"/>
				<path d="m2.95-59.65l-0.15 1.2 16.95 0.45c4.267 0.133 9.867 0.2 16.8 0.2 6.966 0 11.7-0.066 14.2-0.2s6.817 0.083 12.95 0.65l-0.45-2.65-60.3 0.35z" fill="#7A8585"/>
				<path d="m53.1-13.5c-0.733-0.367-7.55-0.55-20.45-0.55s-19.534 0.184-19.9 0.55c-0.633 0.633-0.95 2.683-0.95 6.15-0.034 3.5 0.283 5.45 0.95 5.85 0.7 0.367 7.45 0.55 20.25 0.55s19.5-0.183 20.1-0.55c0.6-0.434 0.917-2.434 0.95-6 0.033-3.6-0.283-5.6-0.95-6z" fill="#C9D9D9"/>
				<path d="m50.95-12.05c-0.633-0.3-6.75-0.45-18.35-0.45-11.6 0.033-17.583 0.183-17.95 0.45-0.534 0.467-0.817 1.983-0.85 4.55-0.034 2.6 0.25 4.05 0.85 4.35 0.633 0.3 6.7 0.45 18.2 0.45 11.534 0 17.567-0.15 18.1-0.45s0.816-1.783 0.85-4.45c0.033-2.667-0.25-4.15-0.85-4.45z" fill="#8B9696"/>
				<path d="m50.05-10.85c-0.633-0.267-6.467-0.4-17.5-0.4-11.034 0-16.733 0.133-17.1 0.4-0.533 0.4-0.8 1.733-0.8 4-0.034 2.3 0.233 3.583 0.8 3.85 0.633 0.233 6.434 0.35 17.4 0.35 10.934 0 16.667-0.117 17.2-0.35 0.533-0.3 0.816-1.617 0.85-3.95 0-2.367-0.283-3.667-0.85-3.9z" fill="#343838"/>
				<path d="m49.4-9.9c-0.567-0.2-6.167-0.3-16.8-0.3s-16.1 0.1-16.4 0.3c-0.533 0.3-0.8 1.35-0.8 3.15-0.034 1.833 0.233 2.85 0.8 3.05 0.566 0.233 6.117 0.35 16.65 0.35 10.534 0 16.05-0.117 16.55-0.35 0.5-0.2 0.767-1.233 0.8-3.1s-0.233-2.9-0.8-3.1z" fill="#697373"/>
				<path d="m31.75-0.05c5.333 0.133 11.667 0 19-0.4l2.35-1.05c-6.233 0.3-12.35 0.383-18.35 0.25l-22-0.25 1.5 1.25 17.5 0.2z" fill="#DCEBEB"/>
				<path d="m52.5-0.85l0.6-0.65c-7.733 0.167-14.683 0.183-20.85 0.05-3.866-0.1-8.267-0.133-13.2-0.1l-6.3 0.05 0.5 0.85 39.25-0.2z" fill="#ECFFFF"/>
				<path d="m20.4-12.75l-5.9 0.15 0.25 0.4 7.9-0.1c5.667-0.033 9.533-0.033 11.6 0l16.7 0.25-0.3-0.55c-10.6-0.067-17.733-0.133-21.4-0.2-1.667-0.033-4.616-0.017-8.85 0.05z" fill="#E0F2F2"/>
				<path d="m32.85-9.25c6.267 0 12 0.167 17.2 0.5-0.166-0.667-0.383-1.05-0.65-1.15-0.567-0.2-6.167-0.3-16.8-0.3s-16.1 0.1-16.4 0.3c-0.167 0.067-0.333 0.333-0.5 0.8 5.8-0.1 11.517-0.15 17.15-0.15z" fill="#4B5252"/>
				<path d="m32.85-3.35c10.534 0 16.05-0.117 16.55-0.35 0.3-0.133 0.5-0.567 0.6-1.3-4.533 0.333-9.917 0.5-16.15 0.5-8.566 0-14.667-0.067-18.3-0.2 0.167 0.567 0.383 0.9 0.65 1 0.567 0.233 6.117 0.35 16.65 0.35z" fill="#4B5252"/>
					<path d="m37.25-50.4c0-0.767-0.267-1.4-0.8-1.9-0.566-0.533-1.233-0.8-2-0.8-0.8 0-1.467 0.267-2 0.8-0.566 0.5-0.85 1.133-0.85 1.9 0 0.733 0.284 1.35 0.85 1.85 0.533 0.533 1.2 0.8 2 0.8 0.767 0 1.434-0.267 2-0.8 0.533-0.5 0.8-1.117 0.8-1.85z" fill="#656E6E"/>
					<path d="m36.8-50.45c0-0.533-0.233-1-0.7-1.4-0.433-0.4-0.966-0.6-1.6-0.6-0.633 0-1.167 0.2-1.6 0.6-0.467 0.4-0.7 0.867-0.7 1.4 0 0.567 0.233 1.05 0.7 1.45 0.433 0.4 0.966 0.6 1.6 0.6s1.167-0.2 1.6-0.6c0.467-0.4 0.7-0.883 0.7-1.45z" fill="#E0F2F2"/>
					<path d="m36.8-50.6c0-0.533-0.233-0.967-0.7-1.3-0.433-0.367-0.966-0.55-1.6-0.55-0.633 0-1.167 0.183-1.6 0.55-0.467 0.333-0.7 0.767-0.7 1.3s0.233 0.967 0.7 1.3c0.433 0.367 0.966 0.55 1.6 0.55s1.167-0.184 1.6-0.55c0.467-0.333 0.7-0.767 0.7-1.3z" fill="#8A9696"/>
			</g>
</symbol>
<symbol id="e" viewBox="0 -2.35 66.2 2.359">
		<path d="m63.5-0.05l2.7-2.3-66.2 0.15c1.333 1.567 2.2 2.3 2.6 2.2l60.9-0.05z" clip-rule="evenodd" fill-rule="evenodd"/>
</symbol>
<symbol id="f">
</symbol>
		<use transform="matrix(1 0 0 -1 0 -.2998)" y="-61.4" width="66.2" height="61.4" xlink:href="#d"/>
		<use transform="matrix(1 0 0 -1 33.5 65.95)" x="16383" y="16383" width="-32766" height="-32766" xlink:href="#f"/>
</svg>
